<?xml version="1.0" encoding="utf-8"?>
<!-- Generator: Adobe Illustrator 19.0.0, SVG Export Plug-In . SVG Version: 6.00 Build 0)  -->
<svg version="1.1" id="Layer_1" xmlns="http://www.w3.org/2000/svg" xmlns:xlink="http://www.w3.org/1999/xlink" x="0px" y="0px"
	 viewBox="0 0 292.5 170" style="enable-background:new 0 0 292.5 170;" xml:space="preserve">
<style type="text/css">
	.st0{fill:#F3FAFB;}
</style>
<path id="XMLID_3_" d="M1077.7-583.2c0,0-4.1,3.8-6.1,2.6c-1.2-0.6-1.1,2.5,1.1,2.4s8.6,0,8.6,0s1.3-4.3-0.1-5
	C1079.7-584,1077.7-583.2,1077.7-583.2z"/>
<path id="XMLID_4_" d="M1066.4-566.5c0,0-6,3.8-9,2.6c-1.7-0.6-1.6,2.5,1.6,2.4c3.2-0.1,12.5,0,12.5,0s1.9-4.3-0.2-5
	C1069.3-567.2,1066.4-566.5,1066.4-566.5z"/>
<rect id="XMLID_2_" x="1260.7" y="-238.2" style="fill:none;" width="34.7" height="62.7"/>
<text id="XMLID_5_" transform="matrix(1 0 0 1 1260.6631 -185.1659)" style="font-family:'TimesNewRomanPS-BoldMT'; font-size:80px;">s</text>
<rect id="XMLID_8_" x="1309.8" y="-236.2" style="fill:none;" width="34.7" height="62.7"/>
<text id="XMLID_7_" transform="matrix(1 0 0 1 1309.7504 -182.4456)" style="font-family:'SitkaBanner-Bold'; font-size:80px;">s</text>
<rect id="XMLID_10_" x="1362.1" y="-236.2" style="fill:none;" width="34.7" height="62.7"/>
<text id="XMLID_9_" transform="matrix(1 0 0 1 1362.0837 -176.9256)" style="font-family:'OldStyle1HPLHS'; font-size:80px;">s</text>
<rect id="XMLID_12_" x="1413.1" y="-236.2" style="fill:none;" width="47.6" height="69.3"/>
<text id="XMLID_11_" transform="matrix(1 0 0 1 1413.0837 -180.2679)" style="font-family:'Cambria-Bold'; font-size:80px;">s</text>
<path id="XMLID_13_" d="M1518.2-198.6c11.6-0.6,11.6-11.9,7.2-19.3c-5-8.5-1.5-19.5,5.9-26c3.2-2.8,5.4-4.7,5.4-4.7s1.5,3.1-0.1,5.8
	c-13,21.8,5.4,27.4-1.2,39.6c-5.5,10.2-16.3,9.8-19,9.8C1513-193.4,1518.2-198.6,1518.2-198.6z"/>
<path id="XMLID_23_" d="M1622.2-210.5c0-8.9-2.9-14.5-6.9-17.9c-1.7-1.4-1.9-3.9-0.5-5.6c0.5-0.7,1-1.4,1.4-2.2
	c5.9-12.6-4.9-25.2-19.3-25.9c-9.6-0.5-22.8,6.1-22.8,19.7l4.6-0.1c2.5,0,4.6-1.9,4.9-4.4c0.6-3.9,4.4-10,12.7-10
	c7.1,0,11.9,4.1,12.1,8.9c0.8,17.3-36.8,9.7-36.8,36.3c0,15.6,15.7,20.7,26.5,20.7C1613.7-190.9,1622.2-200.8,1622.2-210.5z
	 M1613.7-207.5c-2.7,8.6-10.5,11.4-16,11.4c-6.5,0-13.1-3.6-14.3-11.4c-1.6-10.3,9.1-16.5,15.8-17.4
	C1609.9-226.4,1617.4-218.8,1613.7-207.5z"/>
<path id="XMLID_20_" d="M1269.9-160.9c0,8.9,2.9,38.3,6.9,41.7c1.7,1.4,1.9,3.9,0.5,5.6c-0.5,0.7-1,1.4-1.4,2.2
	c-5.9,12.6,4.9,25.2,19.3,25.9c9.6,0.5,22.8-6.1,22.8-19.7l-4.6,0.1c-2.5,0-4.6,1.9-4.9,4.4c-0.6,3.9-4.4,10-12.7,10
	c-7.1,0-11.9-4.1-12.1-8.9c-0.8-17.3,36.8-22.7,36.8-49.2c0-26.5-15.7-31.5-26.5-31.6C1278.4-180.5,1269.9-170.5,1269.9-160.9z
	 M1278.4-163.9c2.7-8.6,10.5-11.4,16-11.4c6.5,0,13.1,3.6,14.3,11.4c1.6,10.3-9.1,40.3-15.8,41.2
	C1282.3-121.1,1274.8-152.5,1278.4-163.9z"/>
<path id="XMLID_17_" d="M1041.5-549.6c0-3-2.5-5.3-5.5-5.1c-0.5,0-1,0.1-1.5,0.1c-7.6,0.8-11.7-1.5-9.6-12.3h-5.1
	c0.1,0.9,0.4,1.8,0.3,2.7c-1.9,13,6.6,20.3,22.8,18.7C1042.7-545.5,1041.4-546.3,1041.5-549.6z"/>
<path id="XMLID_44_" d="M1017.6-394.3c0-9-2-26.1-4.6-35.6c-3.5-12.9-11.1-15.6-20.8-16.1c-9.6-0.5-22.8,6.1-22.8,19.7l4.6-0.1
	c2.5,0,4.6-1.9,4.9-4.4c0.6-3.9,4.4-10,12.7-10c7.1,0,11.9,4.1,12.1,8.9c0.8,17.3-36.8,9.7-36.8,36.3c0,15.6,15.7,20.7,26.5,20.7
	C1009.1-374.7,1017.6-384.7,1017.6-394.3z M984.2-383.5c-11.3-11.3-1.9-29.6,10.4-29.6c12.9,0,12.7,14.6,12.7,19
	C1007.3-382.1,992.1-375.5,984.2-383.5z"/>
<path id="XMLID_31_" d="M959.9-572.1c0,8.9,2.9,14.5,6.9,17.9c1.7,1.4,1.9,3.9,0.5,5.6c-0.5,0.7-1,1.4-1.4,2.2
	c-5.9,12.6,4.9,25.2,19.3,25.9c9.6,0.5,22.8-6.1,22.8-19.7l-4.6,0.1c-2.5,0-4.6,1.9-4.9,4.4c-0.6,3.9-4.4,10-12.7,10
	c-7.1,0-11.9-4.1-12.1-8.9c-0.8-17.3,36.8-9.7,36.8-36.3c0-15.6-15.7-20.7-26.5-20.7C968.4-591.7,959.9-581.7,959.9-572.1z
	 M968.4-575.1c2.7-8.6,10.5-11.4,16-11.4c6.5,0,13.1,3.6,14.3,11.4c1.6,10.3-9.1,16.5-15.8,17.4
	C972.2-556.1,964.7-563.7,968.4-575.1z"/>
<path id="XMLID_30_" d="M1005.3-575.7c-0.5-14.7,6.3-12.4,10-12.7c2.5-0.2,4.3-2.4,4.4-4.9l0.1-4.6c-13.7,0-20.2,13.3-19.7,22.8"/>
<path id="XMLID_34_" d="M1005.3-574.7c-0.5-14.7,6.3-12.4,10-12.7c2.5-0.2,4.3-2.4,4.4-4.9l0.1-4.6c-13.7,0-20.2,13.3-19.7,22.8"/>
<path id="XMLID_35_" d="M1005.3-573.7c-0.5-14.7,6.3-12.4,10-12.7c2.5-0.2,4.3-2.4,4.4-4.9l0.1-4.6c-13.7,0-20.2,13.3-19.7,22.8"/>
<path id="XMLID_36_" d="M1005.3-572.7c-0.5-14.7,6.3-12.4,10-12.7c2.5-0.2,4.3-2.4,4.4-4.9l0.1-4.6c-13.7,0-20.2,13.3-19.7,22.8"/>
<path id="XMLID_27_" d="M1622.2-341.1c0-8.9-2.9-14.5-6.9-17.9c-1.7-1.4-1.9-3.9-0.5-5.6c0.5-0.7,1-1.4,1.4-2.2
	c5.9-12.6-4.9-25.2-19.3-25.9c-9.6-0.5-22.8,6.1-22.8,19.7l4.6-0.1c2.5,0,4.6-1.9,4.9-4.4c0.6-3.9,4.4-10,12.7-10
	c7.1,0,11.9,4.1,12.1,8.9c0.8,17.3-36.8,9.7-36.8,36.3c0,15.6,15.7,20.7,26.5,20.7C1613.7-321.5,1622.2-331.5,1622.2-341.1z
	 M1613.7-338.1c-2.7,8.6-10.5,11.4-16,11.4c-6.5,0-13.1-3.6-14.3-11.4c-1.6-10.3,9.1-16.5,15.8-17.4
	C1609.9-357.1,1617.4-349.5,1613.7-338.1z"/>
<path id="XMLID_26_" d="M1660.1-352.6c-0.5,9.6,6.1,22.8,19.7,22.8l-0.1-4.6c0-2.5-1.9-4.7-4.4-4.9c-3.7-0.3-10.5,2-10-12.7"/>
<path id="XMLID_15_" d="M990.6-532.4c0,0,42.9,2,22.6,45s-65,15.7-63.2-9.7c12.2,0,12.2,0,12.2,0s-0.3,20.7,18.7,20.7
	s44.3-35.9,13.7-47.9C997.5-527.1,990.6-532.4,990.6-532.4z"/>
<g id="XMLID_75_">
	<path id="XMLID_14_" class="st0" d="M40,40.6c0.2-4.8,5-8.9,12.1-8.9c8.3,0,12.1,6.1,12.7,10c0.4,2.5,2.4,4.3,4.9,4.4l4.6,0.1
		c0-13.7-13.3-20.2-22.8-19.7c-14.4,0.7-25.2,13.2-19.3,25.9C38.3,65.4,67.4,65.1,64.7,82C62,99.3,36.2,93.9,37.7,79
		c0.1-0.5,0.1-1.1,0.1-1.5c0.3-3-2.1-5.5-5.1-5.5c-3.3,0-4.1-1.3-4.1-1.3c-1.7,16.1,5,24.8,18.7,26.8C57.9,99,76,95.9,76.8,76.9
		C77.9,50.4,39.1,58,40,40.6z"/>
	<path id="XMLID_49_" class="st0" d="M144.7,97.7C144.7,97.7,144.7,97.7,144.7,97.7l-0.1-4.6c0-2.5-1.9-4.7-4.4-4.9
		c-2.7-0.2-8.2,1.2-8.8-2.3c0-0.6,0.1-1.3,0.1-2.3c0-0.3,0-0.6,0-1c0-0.8,0-1.9-0.1-3.4c0-0.1,0-0.3,0-0.4c0-9-2-26.1-4.6-35.6
		c-3.5-12.9-11.1-15.6-20.8-16.1c-9.6-0.5-22.8,6.1-22.8,19.7l4.6-0.1c2.5,0,4.6-1.9,4.9-4.4c0.6-3.9,4.4-10,12.7-10
		c7.1,0,11.9,4.1,12.1,8.9c0.8,17.3-36.8,9.7-36.8,36.3c0,15.6,15.7,20.7,26.5,20.7c9,0,15.7-3.2,19.7-7.7c2.7,7.3,8.5,9.2,17.9,9.2
		l0-1c0,0,0,0,0,0L144.7,97.7z M121.1,79c0,11.9-15.2,18.5-23.1,10.5C86.7,78.2,96.1,60,108.4,60C121.3,60,121.1,74.6,121.1,79z"/>
	<path id="XMLID_16_" class="st0" d="M269.7,96.8C269.7,96.8,269.7,96.8,269.7,96.8l-0.1-4.6c0-2.5-1.9-4.7-4.4-4.9
		c-2.7-0.2-8.2,1.2-8.8-2.3c0-0.6,0.1-1.3,0.1-2.3c0-0.3,0-0.6,0-1c0-0.8,0-1.9-0.1-3.4c0-0.1,0-0.3,0-0.4c0-9-2-26.1-4.6-35.6
		c-3.5-12.9-11.1-15.6-20.8-16.1c-9.6-0.5-22.8,6.1-22.8,19.7l4.6-0.1c2.5,0,4.6-1.9,4.9-4.4c0.6-3.9,4.4-10,12.7-10
		c7.1,0,11.9,4.1,12.1,8.9c0.8,17.3-36.8,9.7-36.8,36.3c0,15.6,15.7,20.7,26.5,20.7c9,0,15.7-3.2,19.7-7.7c2.7,7.3,8.5,9.2,17.9,9.2
		l0-1c0,0,0,0,0,0L269.7,96.8z M246.1,78.1c0,11.9-15.2,18.5-23.1,10.5c-11.3-11.3-1.9-29.6,10.4-29.6
		C246.2,59.1,246.1,73.8,246.1,78.1z"/>
	<g id="XMLID_40_">
		<path id="XMLID_38_" class="st0" d="M207.7,28.1C207.7,28.1,207.7,28.1,207.7,28.1l-0.1,4.6c0,2.5-1.9,4.7-4.4,4.9
			c-2.7,0.2-8.7-2.2-8.7,2.9c0,0.6,0,0.7,0,1.7c0,0.3,0,0.6,0,1c0,1,0.7,4.9,0.5,6.7l-7,0.9c0-0.3,0-0.7,0-1l0,0c0-0.3,0-0.7,0-1
			l0,0c0-19,6.1-22.8,19.7-22.8l0,1c0,0,0,0,0,0L207.7,28.1z"/>
		<path id="XMLID_50_" class="st0" d="M154.1,76.1c3,1.1,13.2,4.1,23.8,0c10.5-4.1,17.3-12.7,17.3-22.4c0-2.1-0.1-4-0.1-5.6
			c-0.6-11.1-11.1-22.2-29.5-21c-12.5,0.8-30.3,7.6-29.3,25.8C137,66,144.8,72.7,154.1,76.1z M154.2,39c8.9-10.7,28-5.9,28.9,8.9
			c0.3,5.4,0.1,22.6-15.9,23.5C151.9,72.2,142.8,52.7,154.2,39z"/>
		<path id="XMLID_39_" class="st0" d="M148.1,91.5L148.1,91.5l38.4-29.1v0c2.3,3,1.7,7.4-1.3,9.7l-27.4,20.7
			C154.7,95.2,150.4,94.6,148.1,91.5z"/>
		<path id="XMLID_41_" class="st0" d="M181.3,83.9c-8-1.4-13.6-2.5-16.2-0.8c-4.4,2.9-3.2,3.8-3.2,3.8s11.7-1.4,19.3,2.2
			c9.6,4.6,7.4,17.7,7.1,34.9c-0.5,27.7-40.4,27.4-42.4,3.4c-0.3-3-2.7-5.4-5.8-5.5l-6-0.1c-3.6,32,67,39,70.1,2.4
			C206.3,99.8,201.6,87.5,181.3,83.9z"/>
	</g>
</g>
<path id="XMLID_68_" d="M527.2-414.4c0.2-4.8,5-8.9,12.1-8.9c8.3,0,12.1,6.1,12.7,10c0.4,2.5,2.4,4.3,4.9,4.4l0,0
	c2.6,0,4.6-2.4,3.9-5c-2.8-10.2-13.9-15.1-22.2-14.7c-14.4,0.7-25.2,13.2-19.3,25.9c6.2,13.1,35.2,12.8,32.6,29.7
	c-2.7,17.4-28.5,11.9-27-2.9c0.1-0.5,0.1-1.1,0.1-1.5c0.3-3-2.1-5.5-5.1-5.5c-0.1,0-0.2,0-0.3,0c-2.2,0-4.1,1.8-4.1,4
	c0.2,12.7,6.9,19.7,18.9,21.5c10.6,1.6,28.7-1.6,29.5-20.6C565.1-404.6,526.3-397.1,527.2-414.4z"/>
<path id="XMLID_65_" d="M634.9-358C634.9-358,634.9-358,634.9-358l-0.1-4.6c0-2.5-1.9-4.7-4.4-4.9c-2.7-0.2-8.2,1.2-8.8-2.3
	c0-0.6,0.1-1.3,0.1-2.3c0-0.3,0-0.6,0-1c0-0.8,0-1.9-0.1-3.4c0-0.1,0-0.3,0-0.4c0-9-2-26.1-4.6-35.6c-3.5-12.9-11.1-15.6-20.8-16.1
	c-8.3-0.4-19.4,4.4-22.2,14.7c-0.7,2.5,1.3,5,3.9,5l0,0c2.5,0,4.6-1.9,4.9-4.4c0.6-3.9,4.4-10,12.7-10c7.1,0,11.9,4.1,12.1,8.9
	c0.8,17.3-36.8,9.7-36.8,36.3c0,15.6,15.7,20.7,26.5,20.7c6.9,0,12.4-1.8,16.4-4.7c1.7-1.3,4.1-0.8,5.4,0.9
	c3.2,4.1,8.4,5.3,15.8,5.3l0-1c0,0,0,0,0,0L634.9-358z M611.3-376.6c0,11.9-15.2,18.5-23.1,10.5c-11.3-11.3-1.9-29.6,10.4-29.6
	C611.5-395.6,611.3-381,611.3-376.6z"/>
<path id="XMLID_62_" d="M766-358.3C766-358.3,766-358.3,766-358.3l-0.1-4.6c0-2.5-1.9-4.7-4.4-4.9c-2.7-0.2-8.2,1.2-8.8-2.3
	c0-0.6,0.1-1.3,0.1-2.3c0-0.3,0-0.6,0-1c0-0.8,0-1.9-0.1-3.4c0-0.1,0-0.3,0-0.4c0-9-2-26.1-4.6-35.6c-3.5-12.9-11.1-15.6-20.8-16.1
	c-8.3-0.4-19.4,4.4-22.2,14.7c-0.7,2.5,1.3,5,3.9,5l0,0c2.5,0,4.6-1.9,4.9-4.4c0.6-3.9,4.4-10,12.7-10c7.1,0,11.9,4.1,12.1,8.9
	c0.8,17.3-36.8,9.7-36.8,36.3c0,15.6,15.7,20.7,26.5,20.7c6.9,0,12.4-1.8,16.4-4.7c1.7-1.3,4.1-0.8,5.4,0.9
	c3.2,4.1,8.4,5.3,15.8,5.3l0-1c0,0,0,0,0,0L766-358.3z M742.4-377c0,11.9-15.2,18.5-23.1,10.5c-11.3-11.3-1.9-29.6,10.4-29.6
	C742.5-396,742.4-381.4,742.4-377z"/>
<path id="XMLID_61_" d="M699.9-429.6C699.9-429.6,699.9-429.6,699.9-429.6l-0.1,4.6c0,2.5-1.9,4.7-4.4,4.9c-2.7,0.2-8.7-2.2-8.7,2.9
	c0,0.6,0,0.7,0,1.7c0,0.3,0,0.6,0,1c0,0,0,0,0,0c0.1,3.8-2.6,7.1-6.3,7.6l-0.2,0c0-0.3,0-0.7,0-1l0,0c0-0.3,0-0.7,0-1l0,0
	c0-19,6.1-22.8,19.7-22.8l0,1c0,0,0,0,0,0L699.9-429.6z"/>
<path id="XMLID_58_" d="M646.4-381.6c3,1.1,13.2,4.1,23.8,0c10.5-4.1,17.3-12.7,17.3-22.4c0-2.1-0.1-4-0.1-5.6
	c-0.6-11.1-11.1-22.2-29.5-21c-12.5,0.8-30.3,7.6-29.3,25.8C629.3-391.7,637-385,646.4-381.6z M646.4-418.7
	c8.9-10.7,28-5.9,28.9,8.9c0.3,5.4,0.1,22.6-15.9,23.5C644.2-385.4,635.1-405,646.4-418.7z"/>
<path id="XMLID_57_" d="M640.3-366.1L640.3-366.1l38.4-29.1l0,0c2.3,3,1.7,7.4-1.3,9.7L650-364.8C647-362.5,642.6-363.1,640.3-366.1
	z"/>
<path id="XMLID_56_" d="M672.5-371c-7.9-1.9-13.4-3.3-16.1-1.8c0,0-0.1,0.1-0.1,0.1c-1.6,0.9-1,3.4,0.9,3.5
	c4.1,0.2,10.3,0.9,14.9,3.4c9.3,5.2,6.4,18.1,5,35.3c-2.2,27.1-40.5,25-42.5,2.2c-0.3-3.9-3.3-7-7.1-7.3l-2.6-0.2
	c-1-0.1-1.9,0.7-2,1.7c-2.6,30.3,64.9,40.4,70.1,4.9C696.4-353.6,692.5-366.1,672.5-371z"/>
<path id="XMLID_52_" d="M1934.5-614.9v-162.7c0-0.1,0.1-0.2,0.2-0.2h8.6c0.1,0,0.2,0.1,0.2,0.2v162.7c0,0.1-0.1,0.2-0.2,0.2h-8.6
	C1934.6-614.7,1934.5-614.8,1934.5-614.9z"/>
<rect id="XMLID_53_" x="1739.6" y="-537.6" width="248.3" height="15"/>
<rect id="XMLID_55_" x="-553" y="-1425" style="fill:none;" width="1116" height="246"/>
<text id="XMLID_69_" transform="matrix(1 0 0 1 -553 -1369.0625)"><tspan x="0" y="0" style="font-family:'Cambria-Bold'; font-size:80px;">Ah, boohoo, who fuckin’ </tspan><tspan x="0" y="96" style="font-family:'Cambria-Bold'; font-size:80px;">cares? You just do you.</tspan></text>
<g id="XMLID_72_">
	<path id="XMLID_73_" class="st0" d="M221.6-1118.6L221.6-1118.6c-2.6,0-4.8,2.1-4.8,4.7c0,0-0.7,170.1-2.3,226.8
		c0,1,0.9,3.1,1.9,5.2c1.7,3.5,6.6,3.7,8.6,0.3c2.5-4.2,4.1-10.4,3.8-14.9c-0.6-7.5-7-13.3-7.2-30.4c-1.2-102.8,4.7-186.9,4.7-186.9
		C226.3-1116.4,224.2-1118.6,221.6-1118.6z"/>
	<path id="XMLID_74_" class="st0" d="M221.3-1064.2c0,0,50.4,31.8,98.9,42s-17.7-10.1-6.3-12.9s121.4,68.2,211.5,62.1
		c0,0-5.8,6.6-19.3,8.6c9.2,2.3,14.2,1.8,17.6,0.8c-12.4,16.3-109.1-5.5-165.7-34.6c-11-5.7-17.4-10-17.9-7.8
		c-0.7,2.8-0.1,7.4-5.6,7.2c-9.2-0.4-82.8-10.8-115.5-42.1L221.3-1064.2z"/>
</g>
</svg>
